<svg width="20" height="20" viewBox="0 0 20 20" xmlns="http://www.w3.org/2000/svg">
  <path fill-rule="evenodd" clip-rule="evenodd" d="M10 2.75C9.59105 2.75 9.22796 2.94639 8.99991 3.25H11.0001C10.772 2.94639 10.409 2.75 10 2.75ZM12.6465 3.25C12.32 2.09575 11.2588 1.25 10 1.25C8.74122 1.25 7.67998 2.09575 7.35352 3.25H4H3C2.58579 3.25 2.25 3.58579 2.25 4C2.25 4.41421 2.58579 4.75 3 4.75H3.34953L5.25754 18.1061C5.31033 18.4756 5.62677 18.75 6.00001 18.75H14C14.3732 18.75 14.6897 18.4756 14.7425 18.1061L16.6505 4.75H17C17.4142 4.75 17.75 4.41421 17.75 4C17.75 3.58579 17.4142 3.25 17 3.25H16H12.6465ZM11.6946 4.75H8.30553L9.19838 17.25H10.8017L11.6946 4.75ZM13.1984 4.75L12.3055 17.25H13.3495L15.1352 4.75H13.1984ZM4.86476 4.75H6.80171L7.69456 17.25H6.65048L4.86476 4.75Z"/>
</svg>
